<svg width="244" height="120" viewBox="0 0 244 120" fill="none" xmlns="http://www.w3.org/2000/svg">
<path d="M101.52 72.4805C100.8 73.2005 100.08 73.9205 99.36 74.6405C105.36 76.8005 110.4 80.4005 113.04 82.5605C105.12 89.0405 94.8 93.6005 84.24 91.9205C93.12 90.4805 100.56 85.2005 103.92 82.5605C102.24 81.1205 99.6 79.2005 96.24 77.5205C89.04 83.2805 80.64 85.4405 71.28 85.4405C70.08 85.4405 69.12 85.4405 67.92 85.4405C67.68 86.4005 67.44 87.3605 66.96 88.0805C95.28 106.32 116.4 82.8005 117.36 82.5605C117.6 82.5605 111.12 76.0805 101.52 72.4805ZM52.8 88.0805C52.32 87.3605 51.84 86.4005 51.84 85.4405C50.88 85.4405 49.68 85.4405 48.72 85.4405C39.6 85.4405 30.72 83.2805 23.76 77.5205C20.4 79.4405 17.76 81.3605 16.08 82.5605C19.68 85.4405 26.88 90.4805 35.76 91.9205C25.44 93.6005 15.12 89.0405 7.20001 82.5605C9.84001 80.4005 14.88 77.0405 20.88 74.6405C20.16 73.9205 19.44 73.2005 18.72 72.4805C9.12002 76.0805 2.64001 82.5605 2.64001 82.5605C3.84001 82.8005 24.24 106.32 52.8 88.0805Z" fill="#7BA0A8"/>
<path d="M96.24 75.6002C105.84 67.9202 109.92 54.2402 109.92 53.7602C109.92 53.7602 101.04 51.6002 90.96 53.0402C90.72 54.0002 90.48 54.9602 90.24 56.1602C96.48 54.9602 102.48 55.4402 105.84 56.1602C102 65.7602 95.52 74.8802 85.68 78.7202C91.2 74.1602 95.52 67.4402 98.16 60.7202C96 60.4802 92.64 60.0002 89.04 60.2402C86.16 67.9202 79.44 75.8402 67.92 81.3602C68.16 82.0802 68.4 83.0402 68.4 84.0002C78.48 84.2402 88.56 82.3202 96.24 75.6002ZM14.16 56.1602C17.52 55.6802 23.52 55.2002 29.76 56.1602C29.52 55.2002 29.28 54.2402 29.04 53.0402C18.96 51.3602 10.08 53.7602 10.08 53.7602C10.32 54.0002 13.92 66.9602 23.76 75.3602C29.28 80.4002 38.88 84.2402 51.6 83.5202C51.6 82.5602 51.84 81.8402 52.08 80.8802C42.48 76.3202 34.8 69.3602 30.96 59.7602C27.12 59.5202 24 60.0002 21.6 60.2402C24.24 66.9602 28.56 73.6802 34.08 78.2402C24.48 74.8802 17.76 65.7602 14.16 56.1602Z" fill="#7BA0A8"/>
<path d="M87.84 58.3196C92.16 46.7996 88.8 32.8796 88.8 32.6396C88.8 32.6396 79.92 35.0396 72 41.5196C72.24 42.4796 72.72 43.4396 72.96 44.3996C77.76 40.3196 83.28 37.6796 86.4 36.4796C88.08 46.7996 86.88 58.0796 80.16 65.9996C82.8 59.2796 83.04 51.3596 81.84 44.1596C79.68 44.8796 76.8 46.3196 73.44 48.2396C74.88 57.3596 72.24 66.4796 67.44 74.3996C66.72 75.5996 66 76.5596 65.52 77.5196C66 77.9996 66.48 78.7196 66.96 79.4396C76.56 75.1196 84.24 68.1596 87.84 58.3196ZM54.24 77.7597C48.24 69.1197 44.64 59.0397 46.32 48.4796C43.2 46.5596 40.08 45.1196 37.92 44.3996C36.96 51.3596 37.2 59.5196 39.6 66.2396C33.12 58.0796 31.68 47.0396 33.36 36.7196C36.48 37.9196 42 40.5596 47.04 44.6396C47.28 43.6796 47.52 42.7196 48 41.7596C40.08 35.2796 31.2 32.8796 31.2 32.8796C31.2 33.1196 27.84 45.8396 32.16 58.5596C35.52 68.3996 43.44 75.1196 52.8 79.9196C53.28 78.9596 53.52 78.4797 54.24 77.7597Z" fill="#7BA0A8"/>
<path d="M60 24.96C59.76 25.2 50.4 34.8 48 47.76C48 48.96 43.92 60.24 55.44 76.8C56.64 75.84 58.32 75.36 60 75.36C61.68 75.36 63.12 75.84 64.56 76.8C75.36 61.2 72 48.48 72 47.76C71.76 47.04 60.24 25.2 60 24.96ZM69.36 58.32C68.16 51.12 64.56 44.4 60 38.64C55.44 44.4 51.84 51.12 50.64 58.32C48.72 48.24 53.76 37.68 60 29.76C66.48 37.68 71.04 48 69.36 58.32Z" fill="#7BA0A8"/>
<path d="M60 89.7598C63.3137 89.7598 66 87.0735 66 83.7598C66 80.4461 63.3137 77.7598 60 77.7598C56.6863 77.7598 54 80.4461 54 83.7598C54 87.0735 56.6863 89.7598 60 89.7598Z" fill="#7BA0A8"/>
<path d="M122.047 53L122.599 36.923H126.233L129.43 46.813H129.568L132.811 36.923H136.399L136.974 53H134.306L134.26 39.821H134.099L130.994 49.412H128.004L124.922 39.821H124.761L124.715 53H122.047ZM138.978 53L143.371 36.923H146.959L151.352 53H148.592L147.35 48.055L148.799 49.067H141.554L142.957 48.055L141.738 53H138.978ZM142.957 47.963L142.06 46.744H148.27L147.373 47.963L144.958 38.211L146.43 39.384H143.9L145.372 38.211L142.957 47.963ZM157.335 53.322C156.661 53.322 156.009 53.2453 155.38 53.092C154.767 52.954 154.215 52.7853 153.724 52.586C153.234 52.3867 152.85 52.218 152.574 52.08C152.298 51.9267 152.16 51.85 152.16 51.85C152.16 51.85 152.199 51.7427 152.275 51.528C152.352 51.3133 152.436 51.068 152.528 50.792C152.636 50.5007 152.728 50.2553 152.804 50.056C152.896 49.8413 152.942 49.734 152.942 49.734C152.942 49.734 153.08 49.7953 153.356 49.918C153.632 50.0407 154 50.1787 154.46 50.332C154.936 50.4853 155.457 50.6233 156.024 50.746C156.607 50.8687 157.197 50.93 157.795 50.93C158.148 50.93 158.424 50.8993 158.623 50.838C158.823 50.7767 158.968 50.7153 159.06 50.654C159.306 50.4853 159.49 50.2477 159.612 49.941C159.75 49.6343 159.819 49.2203 159.819 48.699C159.819 48.2083 159.681 47.802 159.405 47.48C159.145 47.1427 158.792 46.8513 158.347 46.606C157.903 46.3453 157.42 46.1077 156.898 45.893C156.346 45.6477 155.81 45.3947 155.288 45.134C154.767 44.8733 154.299 44.5743 153.885 44.237C153.487 43.8843 153.165 43.4473 152.919 42.926C152.689 42.4047 152.574 41.7607 152.574 40.994C152.574 40.166 152.766 39.43 153.149 38.786C153.548 38.1267 154.131 37.6053 154.897 37.222C155.664 36.8233 156.615 36.624 157.749 36.624C158.286 36.624 158.8 36.6547 159.29 36.716C159.796 36.7773 160.249 36.8463 160.647 36.923C161.061 36.9997 161.383 37.0763 161.613 37.153C161.859 37.2143 161.981 37.245 161.981 37.245L161.544 39.453C161.544 39.453 161.414 39.43 161.153 39.384C160.908 39.338 160.571 39.2843 160.141 39.223C159.727 39.1463 159.275 39.085 158.784 39.039C158.294 38.993 157.811 38.97 157.335 38.97C156.998 38.97 156.73 38.993 156.53 39.039C156.331 39.085 156.155 39.1617 156.001 39.269C155.848 39.361 155.695 39.5373 155.541 39.798C155.403 40.0433 155.334 40.4037 155.334 40.879C155.334 41.3543 155.472 41.7607 155.748 42.098C156.024 42.42 156.385 42.696 156.829 42.926C157.289 43.156 157.78 43.3783 158.301 43.593C158.777 43.8077 159.267 44.0453 159.773 44.306C160.279 44.5513 160.739 44.8503 161.153 45.203C161.583 45.5403 161.928 45.9773 162.188 46.514C162.449 47.0507 162.579 47.71 162.579 48.492C162.579 49.458 162.357 50.3013 161.912 51.022C161.483 51.7427 160.87 52.31 160.072 52.724C159.29 53.1227 158.378 53.322 157.335 53.322ZM169.711 53.322C169.037 53.322 168.385 53.2453 167.756 53.092C167.143 52.954 166.591 52.7853 166.1 52.586C165.61 52.3867 165.226 52.218 164.95 52.08C164.674 51.9267 164.536 51.85 164.536 51.85C164.536 51.85 164.575 51.7427 164.651 51.528C164.728 51.3133 164.812 51.068 164.904 50.792C165.012 50.5007 165.104 50.2553 165.18 50.056C165.272 49.8413 165.318 49.734 165.318 49.734C165.318 49.734 165.456 49.7953 165.732 49.918C166.008 50.0407 166.376 50.1787 166.836 50.332C167.312 50.4853 167.833 50.6233 168.4 50.746C168.983 50.8687 169.573 50.93 170.171 50.93C170.524 50.93 170.8 50.8993 170.999 50.838C171.199 50.7767 171.344 50.7153 171.436 50.654C171.682 50.4853 171.866 50.2477 171.988 49.941C172.126 49.6343 172.195 49.2203 172.195 48.699C172.195 48.2083 172.057 47.802 171.781 47.48C171.521 47.1427 171.168 46.8513 170.723 46.606C170.279 46.3453 169.796 46.1077 169.274 45.893C168.722 45.6477 168.186 45.3947 167.664 45.134C167.143 44.8733 166.675 44.5743 166.261 44.237C165.863 43.8843 165.541 43.4473 165.295 42.926C165.065 42.4047 164.95 41.7607 164.95 40.994C164.95 40.166 165.142 39.43 165.525 38.786C165.924 38.1267 166.507 37.6053 167.273 37.222C168.04 36.8233 168.991 36.624 170.125 36.624C170.662 36.624 171.176 36.6547 171.666 36.716C172.172 36.7773 172.625 36.8463 173.023 36.923C173.437 36.9997 173.759 37.0763 173.989 37.153C174.235 37.2143 174.357 37.245 174.357 37.245L173.92 39.453C173.92 39.453 173.79 39.43 173.529 39.384C173.284 39.338 172.947 39.2843 172.517 39.223C172.103 39.1463 171.651 39.085 171.16 39.039C170.67 38.993 170.187 38.97 169.711 38.97C169.374 38.97 169.106 38.993 168.906 39.039C168.707 39.085 168.531 39.1617 168.377 39.269C168.224 39.361 168.071 39.5373 167.917 39.798C167.779 40.0433 167.71 40.4037 167.71 40.879C167.71 41.3543 167.848 41.7607 168.124 42.098C168.4 42.42 168.761 42.696 169.205 42.926C169.665 43.156 170.156 43.3783 170.677 43.593C171.153 43.8077 171.643 44.0453 172.149 44.306C172.655 44.5513 173.115 44.8503 173.529 45.203C173.959 45.5403 174.304 45.9773 174.564 46.514C174.825 47.0507 174.955 47.71 174.955 48.492C174.955 49.458 174.733 50.3013 174.288 51.022C173.859 51.7427 173.246 52.31 172.448 52.724C171.666 53.1227 170.754 53.322 169.711 53.322ZM176.061 53L180.454 36.923H184.042L188.435 53H185.675L184.433 48.055L185.882 49.067H178.637L180.04 48.055L178.821 53H176.061ZM180.04 47.963L179.143 46.744H185.353L184.456 47.963L182.041 38.211L183.513 39.384H180.983L182.455 38.211L180.04 47.963ZM196.101 53.299C195.257 53.299 194.445 53.1917 193.663 52.977C192.896 52.747 192.214 52.333 191.616 51.735C191.033 51.137 190.573 50.286 190.236 49.182C189.898 48.078 189.73 46.652 189.73 44.904C189.73 43.1867 189.891 41.7913 190.213 40.718C190.535 39.6293 190.987 38.786 191.57 38.188C192.168 37.59 192.881 37.1837 193.709 36.969C194.537 36.739 195.449 36.624 196.446 36.624C196.952 36.624 197.481 36.6547 198.033 36.716C198.6 36.762 199.137 36.8233 199.643 36.9C200.149 36.9767 200.547 37.0457 200.839 37.107L200.54 39.338C200.095 39.292 199.505 39.2307 198.769 39.154C198.048 39.062 197.228 39.016 196.308 39.016C195.572 39.016 194.989 39.0543 194.56 39.131C194.146 39.2077 193.831 39.3533 193.617 39.568C193.356 39.8133 193.111 40.3577 192.881 41.201C192.666 42.029 192.559 43.2633 192.559 44.904C192.559 46.146 192.628 47.1427 192.766 47.894C192.904 48.63 193.057 49.1897 193.226 49.573C193.394 49.941 193.54 50.194 193.663 50.332C193.831 50.4853 194.107 50.631 194.491 50.769C194.889 50.907 195.472 50.976 196.239 50.976C196.683 50.976 197.082 50.953 197.435 50.907C197.787 50.861 198.079 50.7997 198.309 50.723V45.226L199.505 46.491L195.917 46.284V44.329H200.908V52.333C200.908 52.333 200.701 52.4173 200.287 52.586C199.873 52.7393 199.298 52.8927 198.562 53.046C197.841 53.2147 197.021 53.299 196.101 53.299ZM204.998 53V36.923H213.692V39.246L206.493 39.177L207.712 37.981L207.551 44.743L206.378 43.708H213.117V45.962H206.378L207.551 44.881L207.712 51.919L206.493 50.723L213.692 50.677V53H204.998ZM125.98 76.299C124.861 76.299 123.902 76.0613 123.105 75.586C122.323 75.1107 121.717 74.5127 121.288 73.792C120.874 73.056 120.667 72.3123 120.667 71.561C120.667 70.9783 120.767 70.457 120.966 69.997C121.165 69.5217 121.426 69.1077 121.748 68.755C122.085 68.387 122.438 68.0803 122.806 67.835C123.174 67.5743 123.527 67.3673 123.864 67.214C123.557 66.9993 123.243 66.7233 122.921 66.386C122.614 66.0487 122.354 65.6577 122.139 65.213C121.94 64.753 121.84 64.2317 121.84 63.649C121.84 62.8977 122.016 62.223 122.369 61.625C122.722 61.0117 123.235 60.5287 123.91 60.176C124.6 59.808 125.436 59.624 126.417 59.624C127.475 59.624 128.334 59.8157 128.993 60.199C129.652 60.5823 130.135 61.073 130.442 61.671C130.749 62.269 130.902 62.8977 130.902 63.557C130.902 64.2317 130.764 64.8143 130.488 65.305C130.212 65.7803 129.89 66.179 129.522 66.501C129.154 66.823 128.809 67.0837 128.487 67.283C129.116 67.7277 129.652 68.157 130.097 68.571C130.557 68.985 130.986 69.422 131.385 69.882C131.676 69.376 131.914 68.9083 132.098 68.479C132.297 68.0497 132.451 67.7047 132.558 67.444C132.665 67.168 132.719 67.03 132.719 67.03L134.996 67.697C134.996 67.697 134.912 67.8963 134.743 68.295C134.574 68.6937 134.337 69.2073 134.03 69.836C133.723 70.4493 133.348 71.0933 132.903 71.768C133.486 72.6573 133.938 73.4853 134.26 74.252C134.597 75.0187 134.858 75.6703 135.042 76.207L132.443 76.299C132.382 76.115 132.244 75.793 132.029 75.333C131.814 74.873 131.554 74.3593 131.247 73.792C130.511 74.5587 129.706 75.172 128.832 75.632C127.973 76.0767 127.023 76.299 125.98 76.299ZM126.049 74.16C126.8 74.16 127.513 73.9377 128.188 73.493C128.878 73.033 129.476 72.4887 129.982 71.86C129.415 71.1087 128.801 70.4493 128.142 69.882C127.498 69.2993 126.846 68.8163 126.187 68.433C125.696 68.617 125.236 68.87 124.807 69.192C124.393 69.514 124.063 69.882 123.818 70.296C123.573 70.71 123.45 71.1623 123.45 71.653C123.45 72.3737 123.688 72.9717 124.163 73.447C124.638 73.9223 125.267 74.16 126.049 74.16ZM126.302 66.11C126.808 65.88 127.245 65.558 127.613 65.144C127.996 64.7147 128.188 64.1703 128.188 63.511C128.188 63.0203 128.05 62.5987 127.774 62.246C127.498 61.878 127.015 61.694 126.325 61.694C125.681 61.694 125.213 61.8703 124.922 62.223C124.646 62.5603 124.508 62.9973 124.508 63.534C124.508 64.1473 124.661 64.661 124.968 65.075C125.29 65.4737 125.735 65.8187 126.302 66.11ZM147.093 76.322C146.419 76.322 145.767 76.2453 145.138 76.092C144.525 75.954 143.973 75.7853 143.482 75.586C142.992 75.3867 142.608 75.218 142.332 75.08C142.056 74.9267 141.918 74.85 141.918 74.85C141.918 74.85 141.957 74.7427 142.033 74.528C142.11 74.3133 142.194 74.068 142.286 73.792C142.394 73.5007 142.486 73.2553 142.562 73.056C142.654 72.8413 142.7 72.734 142.7 72.734C142.7 72.734 142.838 72.7953 143.114 72.918C143.39 73.0407 143.758 73.1787 144.218 73.332C144.694 73.4853 145.215 73.6233 145.782 73.746C146.365 73.8687 146.955 73.93 147.553 73.93C147.906 73.93 148.182 73.8993 148.381 73.838C148.581 73.7767 148.726 73.7153 148.818 73.654C149.064 73.4853 149.248 73.2477 149.37 72.941C149.508 72.6343 149.577 72.2203 149.577 71.699C149.577 71.2083 149.439 70.802 149.163 70.48C148.903 70.1427 148.55 69.8513 148.105 69.606C147.661 69.3453 147.178 69.1077 146.656 68.893C146.104 68.6477 145.568 68.3947 145.046 68.134C144.525 67.8733 144.057 67.5743 143.643 67.237C143.245 66.8843 142.923 66.4473 142.677 65.926C142.447 65.4047 142.332 64.7607 142.332 63.994C142.332 63.166 142.524 62.43 142.907 61.786C143.306 61.1267 143.889 60.6053 144.655 60.222C145.422 59.8233 146.373 59.624 147.507 59.624C148.044 59.624 148.558 59.6547 149.048 59.716C149.554 59.7773 150.007 59.8463 150.405 59.923C150.819 59.9997 151.141 60.0763 151.371 60.153C151.617 60.2143 151.739 60.245 151.739 60.245L151.302 62.453C151.302 62.453 151.172 62.43 150.911 62.384C150.666 62.338 150.329 62.2843 149.899 62.223C149.485 62.1463 149.033 62.085 148.542 62.039C148.052 61.993 147.569 61.97 147.093 61.97C146.756 61.97 146.488 61.993 146.288 62.039C146.089 62.085 145.913 62.1617 145.759 62.269C145.606 62.361 145.453 62.5373 145.299 62.798C145.161 63.0433 145.092 63.4037 145.092 63.879C145.092 64.3543 145.23 64.7607 145.506 65.098C145.782 65.42 146.143 65.696 146.587 65.926C147.047 66.156 147.538 66.3783 148.059 66.593C148.535 66.8077 149.025 67.0453 149.531 67.306C150.037 67.5513 150.497 67.8503 150.911 68.203C151.341 68.5403 151.686 68.9773 151.946 69.514C152.207 70.0507 152.337 70.71 152.337 71.492C152.337 72.458 152.115 73.3013 151.67 74.022C151.241 74.7427 150.628 75.31 149.83 75.724C149.048 76.1227 148.136 76.322 147.093 76.322ZM155.674 76L155.766 68.525L155.674 59.946C155.674 59.946 155.851 59.9307 156.203 59.9C156.556 59.8693 157.016 59.831 157.583 59.785C158.166 59.739 158.795 59.7007 159.469 59.67C160.144 59.6393 160.788 59.624 161.401 59.624C162.904 59.624 164.069 60.084 164.897 61.004C165.725 61.924 166.139 63.304 166.139 65.144C166.139 66.294 165.994 67.2447 165.702 67.996C165.411 68.732 165.012 69.3147 164.506 69.744C164 70.158 163.441 70.457 162.827 70.641C162.214 70.8097 161.578 70.894 160.918 70.894C160.397 70.894 159.876 70.8787 159.354 70.848C158.848 70.802 158.519 70.779 158.365 70.779V76H155.674ZM161.033 68.686C161.463 68.686 161.815 68.6553 162.091 68.594C162.367 68.5327 162.582 68.433 162.735 68.295C162.95 68.0803 163.103 67.697 163.195 67.145C163.287 66.593 163.333 65.857 163.333 64.937C163.333 64.1857 163.295 63.6183 163.218 63.235C163.142 62.8517 163.057 62.5833 162.965 62.43C162.873 62.2613 162.774 62.1387 162.666 62.062C162.544 61.97 162.329 61.8933 162.022 61.832C161.716 61.7553 161.332 61.717 160.872 61.717C160.397 61.717 159.929 61.74 159.469 61.786C159.009 61.832 158.641 61.878 158.365 61.924V68.456C158.488 68.4867 158.802 68.5327 159.308 68.594C159.83 68.6553 160.405 68.686 161.033 68.686ZM166.673 76L171.066 59.923H174.654L179.047 76H176.287L175.045 71.055L176.494 72.067H169.249L170.652 71.055L169.433 76H166.673ZM170.652 70.963L169.755 69.744H175.965L175.068 70.963L172.653 61.211L174.125 62.384H171.595L173.067 61.211L170.652 70.963ZM123.624 92.144C123.12 92.144 122.658 92.054 122.238 91.874C121.818 91.69 121.48 91.42 121.224 91.064C120.968 90.708 120.836 90.268 120.828 89.744H121.74C121.74 90.096 121.826 90.386 121.998 90.614C122.17 90.838 122.398 91.006 122.682 91.118C122.966 91.226 123.276 91.28 123.612 91.28C123.976 91.28 124.292 91.222 124.56 91.106C124.828 90.99 125.034 90.838 125.178 90.65C125.326 90.458 125.4 90.248 125.4 90.02C125.4 89.7 125.302 89.442 125.106 89.246C124.91 89.046 124.62 88.884 124.236 88.76L122.904 88.292C122.28 88.068 121.808 87.812 121.488 87.524C121.168 87.236 121.008 86.832 121.008 86.312C121.008 85.728 121.232 85.252 121.68 84.884C122.132 84.516 122.772 84.332 123.6 84.332C124.368 84.332 124.968 84.51 125.4 84.866C125.832 85.218 126.08 85.692 126.144 86.288H125.22C125.16 85.94 124.996 85.67 124.728 85.478C124.464 85.282 124.088 85.184 123.6 85.184C123.104 85.184 122.718 85.294 122.442 85.514C122.166 85.734 122.028 86.012 122.028 86.348C122.028 86.624 122.114 86.844 122.286 87.008C122.462 87.168 122.736 87.312 123.108 87.44L124.668 87.98C125.208 88.16 125.634 88.412 125.946 88.736C126.262 89.06 126.42 89.48 126.42 89.996C126.42 90.396 126.312 90.758 126.096 91.082C125.884 91.406 125.57 91.664 125.154 91.856C124.738 92.048 124.228 92.144 123.624 92.144ZM129.282 92V84.464H131.706C132.534 84.464 133.166 84.674 133.602 85.094C134.042 85.51 134.262 86.076 134.262 86.792C134.262 87.5 134.042 88.062 133.602 88.478C133.166 88.89 132.534 89.096 131.706 89.096H130.23V92H129.282ZM130.23 88.28H131.706C132.23 88.28 132.626 88.146 132.894 87.878C133.166 87.61 133.302 87.248 133.302 86.792C133.302 86.328 133.166 85.958 132.894 85.682C132.626 85.406 132.23 85.268 131.706 85.268H130.23V88.28ZM135.422 92L138.014 84.464H139.154L141.686 92H140.702L140.066 90.068H137.066L136.406 92H135.422ZM137.306 89.336H139.826L138.566 85.604L137.306 89.336ZM147.728 84.464H148.844L152.672 90.668H152.588V84.464H153.524V92H152.48L148.52 85.592H148.664V92H147.728V84.464ZM155.883 92L158.475 84.464H159.615L162.147 92H161.163L160.527 90.068H157.527L156.867 92H155.883ZM157.767 89.336H160.287L159.027 85.604L157.767 89.336ZM162.882 85.268V84.464H168.75V85.268H166.068L166.278 85.052V92H165.342V85.052L165.552 85.268H162.882ZM170.705 84.464H171.641V89.276C171.641 89.984 171.819 90.496 172.175 90.812C172.531 91.124 172.997 91.28 173.573 91.28C174.145 91.28 174.607 91.124 174.959 90.812C175.315 90.496 175.493 89.984 175.493 89.276V84.464H176.429V89.276C176.429 89.908 176.311 90.438 176.075 90.866C175.843 91.29 175.513 91.61 175.085 91.826C174.657 92.038 174.153 92.144 173.573 92.144C172.993 92.144 172.487 92.038 172.055 91.826C171.627 91.61 171.295 91.29 171.059 90.866C170.823 90.438 170.705 89.908 170.705 89.276V84.464ZM179.553 92V84.464H182.181C183.041 84.464 183.691 84.67 184.131 85.082C184.575 85.49 184.797 86.028 184.797 86.696C184.797 87.356 184.575 87.892 184.131 88.304C183.691 88.712 183.041 88.916 182.181 88.916H180.489V92H179.553ZM183.777 92L181.617 88.58H182.637L184.989 92H183.777ZM180.489 88.256H182.109C182.673 88.256 183.101 88.118 183.393 87.842C183.689 87.562 183.837 87.2 183.837 86.756C183.837 86.3 183.695 85.938 183.411 85.67C183.131 85.402 182.721 85.268 182.181 85.268H180.489V88.256ZM186.841 92L189.433 84.464H190.573L193.105 92H192.121L191.485 90.068H188.485L187.825 92H186.841ZM188.725 89.336H191.245L189.985 85.604L188.725 89.336ZM196.407 84.464V91.184H199.767V92H195.471V84.464H196.407Z" fill="#7BA0A8"/>
</svg>
